<svg xmlns="http://www.w3.org/2000/svg" width="3000" height="3000" fill="none" viewBox="0 0 3000 3000" id="panda-cooking"><path fill="#fff" d="M1424.35 552.192C1424.35 552.192 1694.69 596.698 1621.87 344.133C1655.06 230.131 1575.38 -69.0911 1259.17 131.956C1091.26 241.749 1078.31 285.062 1078.31 285.062C1078.31 285.062 689.326 385.374 803.963 555.215C899.845 650.678 911.954 658.181 911.954 658.181C911.954 658.181 1036.84 802.959 1189.02 643.102C1341.19 483.244 1424.35 552.193 1424.35 552.193L1424.35 552.192Z"></path><path fill="#474747" d="M1041.42 728.778C1040.09 728.778 1038.77 728.761 1037.44 728.729C962.592 726.893 912.077 674 904.832 665.971C899.091 661.597 877.039 642.784 796.555 562.653C796.074 562.174 795.64 561.649 795.261 561.087C771.626 526.07 766.209 490.99 779.162 456.823C797.766 407.747 853.65 362.148 945.262 321.292C1002.42 295.8 1055.04 280.538 1070.92 276.179C1079.62 260.396 1114.8 213.817 1253.42 123.171C1253.46 123.147 1253.5 123.122 1253.54 123.099C1318.52 81.78 1378.03 58.667 1430.4 54.406C1477.04 50.61 1517.83 61.554 1551.64 86.933C1588.36 114.493 1616.19 159.835 1630 214.609C1641.46 260.04 1642.46 308.149 1632.78 344.11C1653.81 419.072 1647.25 476.462 1613.24 514.714C1587.86 543.266 1546.67 560.559 1494.11 564.723C1455.21 567.802 1423.95 562.765 1422.64 562.549C1420.83 562.251 1419.13 561.484 1417.71 560.322C1416.79 559.594 1398.27 545.275 1362.55 548.319C1328.38 551.23 1271.86 571.293 1196.62 650.339C1147.05 702.403 1094.86 728.777 1041.42 728.778ZM917.612 649.329C918.673 649.906 919.076 650.37 919.9 651.325C920.365 651.86 968.273 706.141 1038.17 707.748C1086.75 708.852 1134.94 684.68 1181.41 635.864C1216.87 598.617 1251.7 570.487 1284.94 552.254C1312.11 537.348 1338.38 528.928 1363.02 527.229C1398.78 524.773 1421.05 537.211 1428.39 542.171C1445.29 544.438 1548.77 555.719 1597.59 500.724C1626.9 467.717 1631.67 416.011 1611.79 347.04C1611.24 345.132 1611.24 343.106 1611.79 341.199C1621.21 308.863 1620.38 262.323 1609.65 219.741C1597 169.611 1571.93 128.408 1539.04 103.721C1509.45 81.514 1473.47 71.962 1432.1 75.328C1383.19 79.308 1326.92 101.328 1264.86 140.771C1182.37 194.716 1138.87 231.793 1116.9 253.401C1094.28 275.653 1088.98 286.736 1088.33 288.247C1087.42 291.984 1084.69 294.255 1080.93 295.224C1080.32 295.382 1019.03 311.346 953.542 340.584C868.592 378.509 815.078 421.28 798.785 464.274C788.35 491.812 792.704 519.375 812.1 548.506C897.88 633.891 915.599 647.827 917.611 649.327L917.612 649.329Z"></path><path fill="#F7F7F7" d="M1370.51 354.094C1370.51 354.094 1459.23 433.019 1477.35 495.454C1480.66 506.623 1481.72 517.26 1479.55 526.782C1465.35 589.738 1259.47 717.335 1123.67 648.144C1123.67 648.144 1048.16 557 1147.85 419.598C1247.44 282.108 1370.51 354.094 1370.51 354.094Z"></path><path fill="#474747" d="M1212.79 678.648C1178 678.648 1146.52 671.568 1118.91 657.497C1117.63 656.847 1116.5 655.943 1115.59 654.841C1114.74 653.82 1094.81 629.363 1088.01 587.062C1084.06 562.454 1085.35 536.775 1091.83 510.739C1099.83 478.608 1115.82 445.87 1139.36 413.434C1163.08 380.681 1190.22 356.626 1220.02 341.944C1244.13 330.062 1269.94 324.305 1296.72 324.793C1342.16 325.646 1374.46 344.243 1375.81 345.034C1376.41 345.384 1376.97 345.792 1377.49 346.252C1381.2 349.558 1468.68 427.932 1487.43 492.528C1491.43 506.03 1492.23 518.357 1489.79 529.111C1481.96 563.801 1428.55 610.545 1359.91 642.763C1320.01 661.489 1278.61 673.414 1240.19 677.25C1230.85 678.183 1221.71 678.648 1212.79 678.648ZM1130.5 639.818C1159.6 654.011 1235.41 678.008 1350.99 623.758C1381.79 609.301 1410.88 590.835 1432.91 571.763C1453.23 554.171 1466.5 536.934 1469.31 524.472C1470.95 517.253 1470.27 508.499 1467.29 498.435C1451.12 442.742 1373.38 370.875 1364.38 362.697C1359.27 359.968 1331.8 346.23 1295.43 345.767C1272.14 345.46 1249.72 350.608 1228.76 361.038C1202.27 374.219 1177.91 395.993 1156.35 425.755C1134.61 455.72 1119.83 485.735 1112.41 514.974C1106.54 538.111 1105.25 560.845 1108.56 582.545C1112.78 610.233 1124.09 631.133 1130.5 639.818Z"></path><path fill="#DDD" d="M1477.35 495.453C1480.66 506.622 1481.72 517.259 1479.55 526.781C1465.35 589.737 1259.47 717.334 1123.67 648.143C1132.34 630.38 1141.52 614.452 1151.39 600.135C1229.99 484.948 1342.91 473.333 1425.17 484.762C1444.62 487.452 1462.22 491.357 1477.35 495.452V495.453Z"></path><path fill="#474747" d="M1212.79 678.648C1178 678.648 1146.52 671.568 1118.91 657.497C1113.81 654.897 1111.73 648.687 1114.24 643.541C1123.24 625.106 1132.56 608.959 1142.75 594.178C1179.46 540.387 1226.87 503.639 1283.64 484.996C1326.94 470.776 1375.04 467.198 1426.62 474.366C1444.26 476.806 1462.25 480.492 1480.1 485.321C1483.61 486.272 1486.38 488.978 1487.42 492.47C1491.44 506.029 1492.23 518.356 1489.79 529.11C1481.96 563.8 1428.55 610.544 1359.91 642.762C1320.01 661.488 1278.61 673.413 1240.19 677.249C1230.85 678.182 1221.71 678.647 1212.79 678.647L1212.79 678.648ZM1137.92 643.176C1171.33 657.199 1244.17 673.893 1350.99 623.758C1381.79 609.301 1410.88 590.835 1432.91 571.763C1453.23 554.171 1466.5 536.934 1469.31 524.472C1470.64 518.628 1470.45 511.778 1468.74 504.041C1453.69 500.195 1438.58 497.212 1423.74 495.159C1345.4 484.276 1236.06 494.679 1160.07 606.051C1152.24 617.397 1144.96 629.608 1137.92 643.176Z"></path><path fill="#474747" d="M1425.17 484.763C1384.79 558.079 1302.93 646.447 1151.39 600.136 1229.99 484.949 1342.91 473.334 1425.17 484.763zM1235.92 456.036C1232.53 456.036 1229.2 454.395 1227.18 451.36L1180.28 381.002C1177.06 376.179 1178.37 369.662 1183.19 366.446 1188.02 363.23 1194.53 364.535 1197.75 369.359L1244.65 439.717C1247.86 444.54 1246.56 451.057 1241.73 454.273 1239.94 455.465 1237.92 456.036 1235.92 456.036zM1273.94 438.514C1270.64 438.514 1267.4 436.968 1265.36 434.074L1235.84 392.297C1232.49 387.563 1233.62 381.013 1238.35 377.668 1243.09 374.324 1249.64 375.45 1252.98 380.184L1282.5 421.961C1285.84 426.695 1284.72 433.245 1279.98 436.59 1278.14 437.89 1276.03 438.515 1273.94 438.515L1273.94 438.514zM1078.31 295.561C1073.77 295.561 1069.58 292.59 1068.24 288.012 1066.61 282.449 1069.8 276.617 1075.36 274.989 1108.26 265.356 1168.85 272.525 1171.41 272.834 1177.16 273.53 1181.26 278.759 1180.57 284.513 1179.87 290.269 1174.65 294.367 1168.89 293.676 1168.74 293.657 1153.81 291.875 1135.38 291.216 1111.64 290.365 1092.92 291.721 1081.26 295.136 1080.28 295.424 1079.28 295.562 1078.31 295.562V295.561zM1225.91 268.69C1219.34 268.69 1215.57 267.117 1214.19 266.391 1209.05 263.702 1207.07 257.358 1209.76 252.223 1212.32 247.325 1218.21 245.298 1223.21 247.451 1224.83 247.836 1247.19 251.909 1303.4 202.571 1305.74 200.513 1307.59 198.759 1309.06 197.278 1300.17 198.06 1282.69 201.169 1249.12 211.259 1218.99 220.316 1191.08 230.457 1190.8 230.559 1185.35 232.543 1179.33 229.736 1177.35 224.288 1175.36 218.842 1178.17 212.817 1183.62 210.834 1183.94 210.716 1216.26 198.973 1249.3 189.311 1268.92 183.571 1285.05 179.655 1297.22 177.671 1312.38 175.2 1327.24 174.309 1333.25 184.447 1340.99 197.507 1324.95 211.583 1317.25 218.347 1288.15 243.884 1262.97 259.923 1242.4 266.019 1235.64 268.022 1230.18 268.689 1225.91 268.689L1225.91 268.69zM1223.9 247.779C1223.9 247.779 1223.9 247.783 1223.91 247.785L1223.9 247.779zM1408.78 370.691C1408.37 370.691 1407.97 370.689 1407.57 370.685 1385.34 370.465 1367.71 364.24 1366.97 363.975 1361.51 362.02 1358.67 356.011 1360.63 350.554 1362.58 345.101 1368.59 342.26 1374.04 344.207 1374.42 344.34 1389.69 349.616 1408.34 349.696 1408.49 349.696 1408.64 349.696 1408.78 349.696 1432.26 349.696 1450.16 341.679 1462.03 325.863 1465.51 321.226 1472.08 320.287 1476.72 323.763 1481.36 327.242 1482.3 333.821 1478.82 338.458 1463 359.558 1438.79 370.688 1408.78 370.688V370.691zM1554.6 438.516C1550.47 438.516 1546.55 436.061 1544.88 432.003 1542.68 426.64 1545.24 420.508 1550.61 418.307 1576.35 407.741 1603.9 358.005 1612.34 339.733 1614.78 334.473 1621.01 332.178 1626.27 334.605 1631.54 337.035 1633.83 343.268 1631.41 348.53 1631.07 349.266 1622.94 366.789 1610.27 386.354 1592.61 413.613 1575.22 430.897 1558.58 437.727 1557.27 438.262 1555.93 438.516 1554.6 438.516zM1014.83 585.219C1014.37 585.219 1014.09 585.212 1014.01 585.209 1008.21 585.026 1003.67 580.181 1003.85 574.387 1004.03 568.607 1008.88 564.068 1014.63 564.226 1017.13 564.283 1074.15 564.764 1095.26 498.512 1097.02 492.991 1102.92 489.937 1108.45 491.699 1113.97 493.46 1117.02 499.364 1115.26 504.887 1101.71 547.39 1075.08 566.995 1055.12 575.958 1035.71 584.676 1018.75 585.219 1014.83 585.219zM966.13 669.38C959.922 669.38 952.822 669.205 945.421 668.688 913.166 666.43 892.674 659.106 882.775 646.296 879.231 641.709 880.076 635.117 884.663 631.572 889.248 628.026 895.842 628.872 899.387 633.46 910.047 647.254 956.561 650.103 986.185 647.718 991.955 647.261 997.024 651.561 997.489 657.339 997.954 663.117 993.647 668.178 987.868 668.644 987.323 668.688 978.502 669.38 966.129 669.38H966.13zM1368.07 600.018C1364.68 600.018 1361.35 598.38 1359.33 595.35 1356.11 590.529 1357.41 584.011 1362.23 580.792 1400.31 555.358 1420.02 531.522 1429.84 516.005 1440.37 499.378 1442.06 488.559 1442.08 488.451L1442.06 488.561 1462.89 491.178C1462.62 493.302 1455.42 543.805 1373.89 598.248 1372.1 599.444 1370.07 600.018 1368.07 600.018z"></path><path fill="#474747" d="M1208.9 641.896C1156.5 641.896 1136.48 626.255 1134.16 624.275L1147.77 608.298L1147.62 608.172C1154.7 613.75 1180.49 623.45 1227.46 620.245C1233.23 619.855 1238.25 624.219 1238.65 630.002C1239.04 635.785 1234.67 640.794 1228.89 641.189C1221.76 641.676 1215.1 641.896 1208.9 641.896Z"></path><path fill="#fff" d="M1925.82 1884.67L1954.65 2089.56L1964.02 2156.18C1880.61 2171.99 1738 2182.35 1576.22 2182.35C1397.22 2182.35 1241.74 2169.61 1163.78 2151C1164.34 2133.37 1164.9 2114.89 1165.6 2096C1166.86 2047.86 1168.12 1996.91 1168.82 1949.89C949.657 1607.85 1273.92 1502.89 1273.92 1502.89C1297.86 1496.03 1321.65 1490.29 1345.02 1485.81C1490.57 1456.98 1624.78 1468.46 1729.61 1490.15C1863.4 1518 1949.33 1562.92 1949.33 1562.92C1949.33 1562.92 2023.92 1501.07 2162.47 1445.37C2185.85 1955.91 1925.82 1884.67 1925.82 1884.67L1925.82 1884.67Z"></path><path fill="#474747" d="M1576.22 2192.84C1402.04 2192.84 1243.07 2180.72 1161.35 2161.21C1156.5 2160.05 1153.13 2155.64 1153.29 2150.66L1153.59 2141.18C1154.06 2126.45 1154.54 2111.21 1155.11 2095.67C1156.34 2048.72 1157.57 1999 1158.28 1952.88C1086.48 1839.79 1065.38 1739.74 1095.57 1655.48C1113.16 1606.35 1149.03 1562.66 1199.3 1529.12C1237.05 1503.94 1269.34 1493.34 1270.69 1492.9C1270.81 1492.86 1270.92 1492.83 1271.03 1492.79C1295.46 1485.79 1319.69 1479.98 1343.05 1475.5C1467.65 1450.82 1598.44 1452.28 1731.73 1479.87C1846.82 1503.82 1925.97 1539.8 1948.05 1550.55C1967.67 1535.4 2039.36 1483.55 2158.56 1435.62C2161.72 1434.35 2165.29 1434.69 2168.15 1436.53C2171.01 1438.37 2172.81 1441.48 2172.96 1444.88C2178.22 1559.71 2169.5 1654.69 2147.06 1727.2C2128.62 1786.78 2100.83 1831.74 2064.45 1860.83C2015.07 1900.32 1963.24 1900.48 1938.23 1897.51L1974.42 2154.71C1975.2 2160.26 1971.48 2165.44 1965.98 2166.49C1878.94 2182.99 1733.24 2192.84 1576.22 2192.84L1576.22 2192.84ZM1174.55 2142.69C1257.01 2160.73 1409.35 2171.85 1576.22 2171.85C1726.19 2171.85 1865.47 2162.85 1952.23 2147.66L1915.42 1886.13C1914.93 1882.64 1916.23 1879.12 1918.88 1876.79C1921.53 1874.46 1925.16 1873.62 1928.56 1874.54C1928.72 1874.58 1945 1878.86 1968.3 1877.17C1999.17 1874.93 2027.23 1863.82 2051.68 1844.16C2084.63 1817.67 2110.01 1776.1 2127.12 1720.61C2147.79 1653.61 2156.35 1566.24 2152.6 1460.76C2088.79 1487.42 2040.2 1514.82 2009.95 1533.65C1974.85 1555.51 1956.21 1570.85 1956.02 1571.01C1952.77 1573.7 1948.21 1574.18 1944.46 1572.22C1943.62 1571.78 1858.09 1527.62 1727.47 1500.42C1596.95 1473.42 1468.95 1471.96 1347.06 1496.11C1324.31 1500.46 1300.77 1506.12 1277.02 1512.92C1274.74 1513.68 1244.6 1524.03 1210.38 1546.96C1178.13 1568.58 1135.46 1606.21 1115.27 1662.72C1087.25 1741.17 1108.24 1835.88 1177.66 1944.23C1178.77 1945.96 1179.35 1947.99 1179.32 1950.05C1178.61 1997.17 1177.35 2048.18 1176.09 2096.27C1176.09 2096.31 1176.09 2096.35 1176.09 2096.39C1175.52 2111.89 1175.04 2127.12 1174.57 2141.85L1174.55 2142.69L1174.55 2142.69Z"></path><path fill="#474747" d="M1729.61 1490.15C1723.73 1531.85 1700.36 1582.52 1628.42 1611.63C1521.08 1655.15 1410.94 1560.26 1345.02 1485.81C1490.57 1456.98 1624.78 1468.46 1729.61 1490.15Z"></path><path fill="#474747" d="M1572.12 1633.13C1538.37 1633.13 1502.9 1622.78 1466.05 1602.11C1423.77 1578.4 1380.41 1541.61 1337.16 1492.77C1334.67 1489.95 1333.87 1486.02 1335.07 1482.45C1336.28 1478.89 1339.29 1476.24 1342.98 1475.51C1467.64 1450.82 1598.44 1452.29 1731.73 1479.87C1737.15 1480.99 1740.77 1486.13 1740 1491.61C1734.12 1533.31 1710.68 1589.66 1632.36 1621.36C1612.99 1629.21 1592.88 1633.13 1572.12 1633.13L1572.12 1633.13ZM1365.42 1492.67C1402.89 1532.89 1440.13 1563.51 1476.32 1583.81C1530 1613.91 1579.84 1620 1624.48 1601.9C1655.31 1589.42 1679.13 1571.78 1695.28 1549.46C1706.12 1534.48 1713.58 1517.35 1717.52 1498.41C1596.97 1474.65 1478.66 1472.72 1365.42 1492.67Z"></path><path fill="#DDD" d="M2042.12 2123.71C2041.84 2124.83 2041.56 2125.95 2041.28 2127.07C2038.76 2132.66 2030.08 2138.12 2015.81 2143.02C2002.93 2147.78 1985.44 2152.12 1964.02 2156.18C1880.61 2171.99 1738 2182.35 1576.22 2182.35C1397.22 2182.35 1241.74 2169.61 1163.78 2151C1150.49 2147.78 1139.57 2144.56 1131.04 2141.06C1122.08 2137.42 1115.92 2133.78 1112.7 2129.86C1112 2127.76 1111.16 2125.67 1110.32 2123.71C1110.32 2113.63 1130.34 2104.25 1165.6 2096C1244.12 2077.66 1398.48 2065.07 1576.22 2065.07C1731.99 2065.07 1869.98 2074.72 1954.65 2089.56C2009.65 2099.22 2042.12 2110.97 2042.12 2123.71Z"></path><path fill="#474747" d="M1576.22 2192.84C1402.04 2192.84 1243.07 2180.72 1161.34 2161.21C1146.61 2157.64 1135.73 2154.33 1127.05 2150.77C1116.04 2146.3 1108.89 2141.77 1104.59 2136.53C1103.77 2135.54 1103.15 2134.4 1102.74 2133.18C1102.22 2131.63 1101.55 2129.88 1100.67 2127.84C1100.11 2126.53 1099.83 2125.13 1099.83 2123.71C1099.83 2107.52 1118.78 2096.18 1163.21 2085.78C1245.65 2066.53 1403.9 2054.57 1576.22 2054.57C1726.22 2054.57 1868.36 2063.78 1956.46 2079.22C1985.03 2084.24 2007.34 2089.77 2022.76 2095.67C2035.57 2100.58 2052.61 2108.82 2052.61 2123.71C2052.61 2124.56 2052.51 2125.41 2052.3 2126.24L2051.46 2129.61C2051.31 2130.22 2051.1 2130.81 2050.85 2131.37C2046.96 2140 2036.94 2146.85 2019.33 2152.91C2006.3 2157.71 1988.85 2162.15 1965.98 2166.49C1878.94 2182.99 1733.23 2192.84 1576.22 2192.84L1576.22 2192.84ZM1121.85 2124.25C1123.6 2125.79 1127.28 2128.21 1134.99 2131.34C1142.58 2134.45 1152.8 2137.54 1166.25 2140.8C1246.46 2159.95 1403.56 2171.85 1576.22 2171.85C1732 2171.85 1876.24 2162.14 1962.07 2145.86C1983.54 2141.8 2000.4 2137.53 2012.17 2133.18C2012.24 2133.15 2012.32 2133.12 2012.4 2133.09C2024.82 2128.83 2029.4 2125.27 2030.97 2123.67C2027.79 2120.5 2013.42 2110.54 1952.83 2099.9C1865.87 2084.66 1725.08 2075.56 1576.22 2075.56C1405.39 2075.56 1248.97 2087.31 1167.99 2106.22C1134.04 2114.17 1124.24 2120.93 1121.58 2123.52C1121.67 2123.77 1121.76 2124.01 1121.85 2124.25Z"></path><path fill="#FCF5E6" d="M2015.81 2143.02C2002.93 2147.78 1985.44 2152.12 1964.02 2156.18C1880.61 2171.99 1738 2182.35 1576.22 2182.35C1397.22 2182.35 1241.74 2169.61 1163.78 2151C1150.49 2147.78 1139.57 2144.56 1131.04 2141.06C1139.01 2138.12 1148.81 2135.32 1160.15 2132.66C1238.66 2114.33 1393.02 2101.73 1570.76 2101.73C1726.53 2101.73 1864.52 2111.39 1949.19 2126.23C1978.16 2131.26 2000.83 2137 2015.81 2143.02V2143.02Z"></path><path fill="#474747" d="M1576.22 2192.84C1402.04 2192.84 1243.07 2180.72 1161.34 2161.21C1146.61 2157.64 1135.73 2154.33 1127.05 2150.77C1123.05 2149.13 1120.46 2145.2 1120.54 2140.87C1120.62 2136.55 1123.34 2132.71 1127.41 2131.21C1135.59 2128.2 1145.8 2125.25 1157.75 2122.45C1240.18 2103.2 1398.44 2091.24 1570.76 2091.24C1720.76 2091.24 1862.91 2100.45 1951 2115.89C1980.75 2121.06 2003.87 2126.91 2019.72 2133.28C2023.74 2134.9 2026.36 2138.83 2026.3 2143.17C2026.24 2147.51 2023.51 2151.36 2019.44 2152.87C2006.4 2157.69 1988.91 2162.14 1965.98 2166.49C1878.94 2182.99 1733.23 2192.84 1576.22 2192.84L1576.22 2192.84ZM1168.96 2141.43C1249.96 2160.21 1405.48 2171.85 1576.22 2171.85C1732 2171.85 1876.24 2162.14 1962.07 2145.86C1967.63 2144.81 1972.89 2143.74 1977.82 2142.66C1968.66 2140.54 1958.47 2138.5 1947.39 2136.57C1860.41 2121.33 1719.62 2112.23 1570.76 2112.23C1404.34 2112.23 1251.6 2123.38 1168.96 2141.43Z"></path><path fill="#F7F7F7" d="M1110.32 2123.71C1111.16 2125.67 1112 2127.76 1112.7 2129.86C1111.16 2127.9 1110.32 2125.81 1110.32 2123.71Z"></path><path fill="#474747" d="M1112.71 2140.36C1109.57 2140.36 1106.49 2138.96 1104.45 2136.35 1101.42 2132.5 1099.83 2128.13 1099.83 2123.71 1099.83 2118.72 1103.33 2114.43 1108.21 2113.42 1113.09 2112.42 1118.01 2114.99 1119.97 2119.57 1121.07 2122.15 1121.95 2124.43 1122.66 2126.55 1124.27 2131.39 1122.17 2136.69 1117.67 2139.11 1116.1 2139.95 1114.39 2140.36 1112.71 2140.36H1112.71zM1120.54 2123.71H1120.82C1120.82 2123.63 1120.82 2123.56 1120.81 2123.5L1120.54 2123.71zM1880.54 970.241C1876.24 962.341 1871.88 954.576 1867.43 947.082 1865.52 943.916 1863.75 940.801 1861.85 937.634 1822.98 873.101 1777.82 821.005 1723.5 783.669 1709.04 773.701 1693.86 764.851 1677.91 757.253 1667.27 751.929 1656.24 747.231 1644.88 743.025 1694.62 679.3 1808.29 568.338 1935.31 676.885 2055.61 779.872 1951.91 905.447 1880.54 970.241z"></path><path fill="#474747" d="M1877.71 986.986L1871.33 975.263C1866.55 966.505 1862.33 959.041 1858.41 952.445C1857.46 950.869 1856.51 949.257 1855.57 947.645C1854.68 946.116 1853.78 944.585 1852.85 943.044C1812.93 876.76 1768.68 827.455 1717.56 792.318C1703.36 782.531 1688.5 773.924 1673.39 766.728L1673.21 766.639C1663.35 761.704 1652.59 757.072 1641.23 752.868L1627.77 747.885L1636.6 736.567C1658.51 708.502 1681.89 684.858 1706.1 666.294C1740.32 640.062 1775.11 625.002 1809.51 621.536C1855.33 616.92 1899.94 632.856 1942.13 668.905C1980.53 701.779 2000.31 739.712 2000.92 781.655C2001.43 816.586 1988.56 854.041 1962.67 892.978C1943.89 921.223 1918.63 949.832 1887.6 978.012L1877.71 986.986ZM1682.51 747.821C1698.59 755.484 1714.39 764.638 1729.46 775.026C1783.09 811.888 1829.34 863.309 1870.84 932.219C1871.82 933.84 1872.75 935.444 1873.69 937.046C1874.59 938.583 1875.49 940.121 1876.42 941.67C1878.6 945.332 1880.85 949.227 1883.23 953.427C1908.54 929.374 1929.35 905.173 1945.19 881.355C1968.69 846.014 1980.38 812.573 1979.93 781.961C1979.41 746.306 1962.1 713.636 1928.48 684.857C1890.83 652.68 1851.51 638.399 1811.61 642.421C1747.51 648.881 1693.12 701.239 1662.03 738.482C1669.16 741.446 1676.01 744.57 1682.51 747.821Z"></path><path fill="#F29797" d="M1867.43 947.082C1865.52 943.916 1863.75 940.801 1861.85 937.634C1822.98 873.101 1777.82 821.005 1723.5 783.669C1709.04 773.701 1693.86 764.851 1677.91 757.253C1732.13 700.111 1811.1 659.142 1905.44 734.212C1991.46 802.665 1923.27 881.003 1867.43 947.082Z"></path><path fill="#474747" d="M1866.47 959.06L1861.43 950.69C1860.46 949.079 1859.53 947.479 1858.59 945.879 1857.69 944.337 1856.79 942.796 1855.85 941.241 1815.67 874.519 1771.08 824.861 1719.54 789.435 1705.19 779.546 1690.18 770.845 1674.9 763.57L1666.2 759.426 1672.83 752.436C1747.91 673.318 1829.85 665.119 1909.8 728.736 1935.82 749.446 1950.3 772.952 1952.84 798.6 1957.99 850.808 1913.92 902.935 1875.03 948.926L1866.47 959.059 1866.47 959.06zM1689.65 755.258C1702.58 761.897 1715.27 769.492 1727.47 777.907 1780.69 814.483 1826.61 865.552 1867.84 934.024 1868.05 934.361 1868.25 934.698 1868.45 935.034 1904.46 892.371 1943.31 844.591 1938.91 799.975 1936.73 777.929 1924.36 758.208 1901.08 739.687 1859.88 706.9 1818.49 694.562 1778.06 703.002 1748.09 709.262 1718.38 726.826 1689.65 755.258zM999.251 1177.53C1001.16 1168.74 1003.15 1160.06 1005.32 1151.62 1006.26 1148.04 1007.08 1144.55 1008.01 1140.98 1027.15 1068.12 1055.82 1005.42 1097.44 954.303 1108.51 940.668 1120.59 927.904 1133.76 916.123 1142.47 908.019 1151.73 900.408 1161.45 893.174 1095.79 846.022 955.479 771.536 864.145 911.44 777.684 1044.12 912.539 1135.44 999.252 1177.53H999.251z"></path><path fill="#474747" d="M1006.68 1192.8L994.668 1186.97C956.956 1168.67 924.667 1148.32 898.698 1126.5C862.897 1096.42 840.008 1064.1 830.668 1030.44C819.453 990.019 827.757 948.054 855.351 905.71C885.688 859.239 924.02 831.389 969.287 822.925C1003.27 816.572 1040.89 821.231 1081.11 836.776C1109.56 847.777 1138.66 863.883 1167.58 884.65L1179.24 893.024L1167.72 901.595C1158 908.831 1148.98 916.306 1140.91 923.81L1140.76 923.948C1128.28 935.105 1116.45 947.545 1105.59 960.921C1066.42 1009.04 1037.82 1068.8 1018.17 1143.65C1017.71 1145.38 1017.29 1147.1 1016.86 1148.81C1016.41 1150.63 1015.95 1152.44 1015.47 1154.28C1013.58 1161.67 1011.62 1170.03 1009.51 1179.76L1006.68 1192.81L1006.68 1192.8ZM999.423 841.188C990.648 841.188 981.862 841.931 973.145 843.561C933.729 850.93 900.013 875.699 872.934 917.179C848.778 954.247 841.362 990.468 850.896 1024.83C859.082 1054.33 879.708 1083.13 912.202 1110.43C934.101 1128.83 960.882 1146.2 991.946 1162.15C993.037 1157.47 994.099 1153.11 995.152 1149.01C995.625 1147.2 996.055 1145.47 996.485 1143.74C996.933 1141.94 997.381 1140.14 997.859 1138.32C1018.29 1060.51 1048.2 998.152 1089.3 947.675C1100.83 933.476 1113.41 920.248 1126.69 908.368C1132.01 903.422 1137.71 898.496 1143.72 893.643C1108.95 870.369 1054.4 841.186 999.423 841.186V841.188Z"></path><path fill="#F29797" d="M1005.32 1151.62C1006.26 1148.04 1007.08 1144.55 1008.01 1140.98C1027.15 1068.12 1055.82 1005.42 1097.44 954.303C1108.51 940.668 1120.59 927.904 1133.76 916.123C1065.65 876.55 999.122 849.341 929.722 947.926C866.441 1037.82 933.139 1103.92 1005.32 1151.62Z"></path><path fill="#474747" d="M1009.61 1162.84L1001.46 1157.45C962.45 1131.68 909.401 1091.14 899.163 1036.96C893.452 1006.73 901.809 975.424 924 943.898C957.006 897.013 992.367 873.894 1032.1 873.219C1065.72 872.625 1098.49 887.537 1137.27 910.073L1145.61 914.915L1138.42 921.34C1125.81 932.62 1113.85 945.195 1102.87 958.714C1063.38 1007.22 1034.57 1067.42 1014.78 1142.76C1014.32 1144.5 1013.89 1146.24 1013.46 1147.97C1013.01 1149.77 1012.57 1151.57 1012.09 1153.39L1009.61 1162.84H1009.61ZM1034.1 887.156C1001.48 887.156 969.089 904.16 935.444 951.955C915.232 980.668 907.862 1007.62 912.914 1034.36C919.621 1069.85 947.679 1103.65 1000.97 1140.25C1001.06 1139.9 1001.15 1139.56 1001.24 1139.21C1021.55 1061.89 1051.24 999.967 1092.01 949.885C1101.38 938.354 1111.44 927.473 1122 917.447C1091.86 900.415 1062.9 887.157 1034.1 887.157L1034.1 887.156Z"></path><path fill="#F7F7F7" d="M1847.52 1480.14L1847.36 1480.25C1803.56 1502.24 1756.42 1516.25 1716.28 1525.12C1659.56 1537.76 1616.68 1540.1 1616.68 1540.1C1539.96 1612.85 1437.9 1566.13 1437.9 1566.13C1306.43 1571.86 1215.68 1557.82 1153.38 1527.71C1107.58 1505.85 1077.1 1475.14 1057.08 1437.29C1025.24 1377.24 1019.91 1298.85 1021.65 1208.73C1009.74 1089.74 1012.13 997.679 1030.69 924.236C1051.86 838.509 1094.7 778.017 1161.25 730.371C1213.9 692.582 1281.36 662.726 1364.74 634.849C1476.14 617.25 1565.95 626.121 1638.71 652.185C1725.71 683.727 1787.76 740.077 1832.6 805.953C1894.38 897.201 1923.22 1006.61 1938.07 1093.7C2053.38 1310.61 1962.03 1422.74 1847.52 1480.14Z"></path><path fill="#474747" d="M1511.95 1591.39C1507.27 1591.39 1502.54 1591.22 1497.75 1590.86C1467.05 1588.6 1443.42 1579.79 1435.97 1576.72C1308.86 1582.05 1214.91 1569.11 1148.81 1537.16C1103.12 1515.36 1070.07 1484.29 1047.8 1442.2C1012.99 1376.56 1009.58 1291.43 1011.14 1209.15C998.924 1086.68 1001.9 995.307 1020.51 921.664C1041.68 835.949 1084.46 772.435 1155.14 721.836C1204.93 686.104 1270.48 655.297 1361.41 624.893L1362.24 624.617L1363.1 624.48C1468.73 607.792 1562.65 613.79 1642.25 642.303C1723.01 671.583 1789.96 724.652 1841.28 800.046C1891.93 874.86 1927.88 972.493 1948.13 1090.27C1999.37 1187.25 2013.99 1272.04 1991.57 1342.32C1972.14 1403.24 1925.48 1452.65 1852.86 1489.2L1852.69 1489.32L1852.07 1489.63C1813.74 1508.87 1768.81 1524.26 1718.54 1535.37C1670.69 1546.04 1632.94 1549.45 1621.09 1550.33C1591.24 1577.34 1553.81 1591.39 1511.95 1591.39L1511.95 1591.39ZM1439.97 1555.53L1442.27 1556.59C1442.5 1556.69 1467.02 1567.68 1499.98 1569.98C1543.21 1572.99 1580.04 1560.38 1609.46 1532.48L1612.26 1529.83L1616.11 1529.62C1616.53 1529.6 1658.88 1527.16 1713.99 1514.88C1762.32 1504.2 1805.38 1489.5 1842.03 1471.18L1842.19 1471.07L1842.82 1470.75C1910.55 1436.81 1953.87 1391.45 1971.57 1335.95C1992.32 1270.9 1977.93 1191.05 1928.8 1098.63L1928.01 1097.13L1927.72 1095.46C1908.03 979.914 1873.1 884.489 1823.91 811.84C1775.14 740.189 1711.62 689.787 1635.13 662.056C1559.14 634.833 1469 629.119 1367.24 645.083C1278.79 674.709 1215.26 704.529 1167.37 738.9C1100.98 786.428 1060.79 846.118 1040.88 926.754C1022.84 998.144 1020.05 1087.39 1032.09 1207.68L1032.15 1208.31L1032.14 1208.93C1030.61 1288.58 1033.69 1370.79 1066.35 1432.38C1086.44 1470.34 1116.38 1498.43 1157.9 1518.24C1221.25 1548.86 1312.68 1561.09 1437.45 1555.64L1439.98 1555.53L1439.97 1555.53Z"></path><path fill="#474747" d="M1279.55 1031.84C1337.88 953.724 1380.68 1028.88 1408.72 1162.07 1436.76 1295.26 1362.29 1321.06 1272.84 1315.13 1183.39 1309.19 1136.94 1222.82 1279.55 1031.84zM1667.68 992.48C1598.49 933.389 1573.33 1008.82 1573.07 1133.52 1572.81 1258.22 1646.86 1267.37 1728.67 1245.25 1810.47 1223.13 1836.85 1136.96 1667.68 992.481L1667.68 992.48zM1512.46 1320.78C1542.25 1309.42 1571.14 1235.55 1494.67 1260.54 1418.2 1285.53 1486.2 1330.78 1512.46 1320.78zM1582.51 1431.55C1549.97 1431.55 1515.13 1412.15 1510.98 1373.97 1510.35 1368.21 1514.51 1363.03 1520.28 1362.4 1526.05 1361.78 1531.22 1365.94 1531.85 1371.7 1534.81 1398.94 1562.14 1411.99 1586.33 1410.44 1603.53 1409.34 1621.77 1400.69 1621.37 1379.73 1621.25 1373.93 1625.86 1369.14 1631.65 1369.03 1631.72 1369.03 1631.79 1369.03 1631.86 1369.03 1637.57 1369.03 1642.24 1373.59 1642.35 1379.32 1642.92 1408.33 1620.94 1429.26 1587.67 1431.39 1585.96 1431.5 1584.23 1431.55 1582.51 1431.55z"></path><path fill="#474747" d="M1452.6 1446.9C1428.52 1446.9 1403.79 1437.14 1391.26 1412.45C1388.63 1407.29 1390.69 1400.97 1395.86 1398.34C1401.03 1395.72 1407.35 1397.78 1409.97 1402.95C1421.69 1426.03 1450.53 1429.55 1472.37 1423.05C1492.01 1417.21 1513.9 1400.85 1510.98 1373.97L1504.2 1311.74C1503.58 1305.98 1507.74 1300.8 1513.5 1300.17C1519.27 1299.54 1524.45 1303.71 1525.07 1309.47L1531.85 1371.7C1533.71 1388.82 1528.85 1404.88 1517.79 1418.13C1508.26 1429.55 1494.25 1438.44 1478.35 1443.17C1470.29 1445.57 1461.49 1446.9 1452.6 1446.9L1452.6 1446.9Z"></path><path fill="#F29797" d="M1780.2 1293.72C1805.5 1282.8 1821.9 1264.41 1816.83 1252.65 1811.75 1240.88 1787.12 1240.2 1761.81 1251.12 1736.51 1262.03 1720.11 1280.42 1725.19 1292.19 1730.26 1303.95 1754.89 1304.64 1780.2 1293.72zM1304.74 1395C1332.25 1393.36 1353.94 1381.67 1353.18 1368.87 1352.41 1356.08 1329.49 1347.04 1301.98 1348.68 1274.47 1350.32 1252.78 1362.02 1253.55 1374.81 1254.31 1387.6 1277.23 1396.64 1304.74 1395z"></path><path fill="#F9F9F9" d="M1677.08 1234.06C1696.59 1232.89 1710.89 1206.64 1709.03 1175.42C1707.17 1144.2 1689.85 1119.83 1670.34 1121C1650.84 1122.16 1636.53 1148.41 1638.39 1179.63C1640.25 1210.85 1657.57 1235.22 1677.08 1234.06Z"></path><path fill="#474747" d="M1675.73 1211.36C1687.4 1210.67 1695.97 1194.95 1694.85 1176.27C1693.74 1157.58 1683.37 1143 1671.7 1143.69C1660.02 1144.39 1651.46 1160.1 1652.57 1178.79C1653.68 1197.47 1664.05 1212.06 1675.73 1211.36Z"></path><path fill="#F9F9F9" d="M1687.67 1163.44C1693.05 1163.44 1697.41 1159.07 1697.41 1153.69 1697.41 1148.3 1693.05 1143.94 1687.67 1143.94 1682.28 1143.94 1677.92 1148.3 1677.92 1153.69 1677.92 1159.07 1682.28 1163.44 1687.67 1163.44zM1345.49 1288.24C1365 1287.08 1379.31 1260.82 1377.44 1229.6 1375.58 1198.38 1358.26 1174.02 1338.75 1175.18 1319.25 1176.34 1304.94 1202.59 1306.8 1233.81 1308.66 1265.03 1325.98 1289.4 1345.49 1288.24z"></path><path fill="#474747" d="M1344.14 1265.54C1355.81 1264.85 1364.38 1249.14 1363.26 1230.45C1362.15 1211.76 1351.78 1197.18 1340.11 1197.87C1328.43 1198.57 1319.87 1214.28 1320.98 1232.97C1322.09 1251.65 1332.46 1266.24 1344.14 1265.54Z"></path><path fill="#F9F9F9" d="M1356.08 1217.62C1361.46 1217.62 1365.82 1213.25 1365.82 1207.87C1365.82 1202.49 1361.46 1198.12 1356.08 1198.12C1350.69 1198.12 1346.33 1202.49 1346.33 1207.87C1346.33 1213.25 1350.69 1217.62 1356.08 1217.62Z"></path><path fill="#474747" d="M1968.92 1271.69V1271.82C1965.28 1274.9 1961.92 1278.4 1959.13 1282.18C1916.86 1338.02 1914.48 1348.8 1913.22 1373.57C1913.22 1373.57 1858.22 1349.08 1886.35 1288.76C1914.48 1228.58 1968.92 1271.69 1968.92 1271.69Z"></path><path fill="#474747" d="M1922.93 1389.38L1908.95 1383.16C1907.86 1382.67 1882 1370.9 1871.85 1343.74C1865.14 1325.8 1866.82 1305.8 1876.84 1284.32C1886.35 1263.97 1899.79 1251.62 1916.77 1247.61C1946.2 1240.65 1974.26 1262.52 1975.44 1263.46L1979.42 1266.61V1276.69L1975.7 1279.84C1972.54 1282.51 1969.8 1285.4 1967.56 1288.43L1967.49 1288.52C1925.21 1344.37 1924.77 1353.08 1923.7 1374.1L1922.93 1389.38ZM1928.83 1267.22C1926.4 1267.22 1923.94 1267.48 1921.52 1268.06C1911.13 1270.54 1902.5 1279 1895.86 1293.2C1888.35 1309.31 1886.87 1323.77 1891.45 1336.21C1894.44 1344.34 1899.67 1350.61 1904.66 1355.12C1908.33 1335.99 1918.56 1318.39 1950.73 1275.89C1951.26 1275.16 1951.82 1274.45 1952.39 1273.73C1946.12 1270.51 1937.59 1267.22 1928.83 1267.22Z"></path><path fill="#D89F4C" d="M2215.66 1116.34L1970.46 1550.75L1955.21 1577.76L1651.76 2142.04L1568.44 2139.68L2138.26 1116.34C2174.79 1056.72 2215.66 1116.34 2215.66 1116.34Z"></path><path fill="#474747" d="M1651.76 2152.54C1651.67 2152.54 1651.57 2152.54 1651.47 2152.53L1568.14 2150.18C1564.47 2150.07 1561.13 2148.06 1559.31 2144.88C1557.5 2141.69 1557.48 2137.78 1559.27 2134.58L2129.09 1111.23C2129.16 1111.11 2129.24 1110.98 2129.31 1110.85C2141.85 1090.38 2156.73 1079.79 2173.54 1079.36C2173.88 1079.35 2174.22 1079.34 2174.56 1079.34C2202.7 1079.34 2223.44 1109.12 2224.32 1110.4C2226.58 1113.71 2226.77 1118.01 2224.8 1121.5L1979.6 1555.91L1964.41 1582.82L1661.01 2147.01C1659.18 2150.42 1655.62 2152.54 1651.77 2152.54L1651.76 2152.54ZM1586.02 2129.68L1645.59 2131.37L1945.96 1572.79C1946 1572.72 1946.03 1572.66 1946.07 1572.6L1961.32 1545.59L2203.06 1117.31C2196.66 1110.02 2185.28 1100.03 2174.02 1100.35C2164.85 1100.61 2155.86 1107.77 2147.33 1121.64L1586.02 2129.68L1586.02 2129.68Z"></path><path fill="#474747" d="M1935.89 1689.72C1934.77 1703.43 1923.72 1714.77 1925.82 1730.44C1927.78 1745.28 1917.84 1772.71 1901.33 1799.72C1886.63 1823.37 1867.04 1846.88 1845.77 1861.44C1800.28 1892.79 1776.91 1883.97 1737.44 1865.78L1697.98 1847.58L1591.47 1900.48C1591.47 1900.48 1593.57 1769.49 1684.82 1690C1684.82 1690 1715.75 1689.58 1738.98 1670.26C1762.36 1650.81 1801.12 1570.06 1909.86 1649.55C1931.84 1666.63 1936.87 1678.94 1935.9 1689.72H1935.89Z"></path><path fill="#474747" d="M1580.7 1917.56L1580.98 1900.32C1581 1898.93 1581.66 1865.72 1593.82 1822.23C1605.09 1781.9 1628.83 1724.85 1677.93 1682.09L1680.83 1679.56L1684.68 1679.5C1684.92 1679.5 1712.31 1678.79 1732.27 1662.19C1735.29 1659.68 1739.03 1655.48 1743.36 1650.61C1756.53 1635.79 1774.57 1615.49 1802.64 1607.77C1835.81 1598.64 1872.91 1609.54 1916.06 1641.08L1916.3 1641.27C1938.59 1658.58 1947.86 1673.81 1946.35 1690.62C1945.74 1698.05 1943 1704.59 1940.59 1710.37C1937.79 1717.04 1935.38 1722.81 1936.22 1729.05C1938.92 1749.5 1924.59 1781.79 1910.28 1805.2C1892.97 1833.06 1872.18 1856.09 1851.69 1870.1C1802.13 1904.26 1774.32 1894.33 1733.05 1875.31L1698.15 1859.22L1580.7 1917.56ZM1689.06 1700.27C1645.83 1739.22 1624.51 1790.66 1614.2 1827.3C1607.88 1849.76 1604.81 1869.53 1603.33 1882.87L1697.81 1835.95L1741.84 1856.25C1780.47 1874.05 1799.26 1880.75 1839.81 1852.8C1857.97 1840.37 1876.64 1819.56 1892.41 1794.18C1910.05 1765.33 1916.71 1741.62 1915.41 1731.82C1913.82 1719.96 1917.92 1710.15 1921.22 1702.27C1923.3 1697.29 1925.1 1693 1925.43 1688.87L1925.44 1688.77C1925.95 1683.24 1924.22 1674.03 1903.55 1657.94C1866.48 1630.87 1834.41 1620.81 1808.22 1628.01C1786.14 1634.09 1771.12 1650.98 1759.05 1664.56C1754.16 1670.06 1749.94 1674.81 1745.7 1678.33C1724.87 1695.65 1698.99 1699.44 1689.06 1700.27H1689.06Z"></path><path fill="#474747" d="M1901.33 1799.72C1917.84 1772.71 1927.78 1745.28 1925.82 1730.44C1923.72 1714.77 1934.77 1703.43 1935.89 1689.72C1950.31 1688.18 1964.58 1689.58 1967.24 1700.64C1972.7 1723.17 1997.19 1803.36 1901.33 1799.72Z"></path><path fill="#474747" d="M1907.42 1810.33C1905.3 1810.33 1903.14 1810.29 1900.93 1810.21L1883.03 1809.53 1892.37 1794.24C1910.05 1765.33 1916.71 1741.62 1915.41 1731.82 1913.82 1719.96 1917.92 1710.15 1921.22 1702.27 1923.3 1697.29 1925.1 1692.99 1925.43 1688.86L1926.14 1680.2 1934.78 1679.28C1965.5 1676 1974.94 1687.75 1977.45 1698.18 1977.68 1699.12 1977.95 1700.19 1978.24 1701.36 1982.62 1718.78 1992.86 1759.58 1971.06 1786.46 1958.2 1802.32 1936.81 1810.33 1907.42 1810.33zM1944.58 1699.71C1943.45 1703.53 1941.96 1707.07 1940.59 1710.37 1937.8 1717.04 1935.39 1722.81 1936.22 1729.05 1937.41 1738.06 1935.45 1749.82 1930.39 1764.04 1927.58 1771.93 1923.9 1780.29 1919.53 1788.78 1935.89 1787.14 1947.7 1781.94 1954.75 1773.24 1969.94 1754.51 1961.79 1722.07 1957.88 1706.47 1957.57 1705.25 1957.29 1704.12 1957.04 1703.11 1956.59 1701.21 1952.32 1699.71 1944.78 1699.71H1944.58zM1783.84 1633.11C1779.44 1633.11 1775.34 1630.32 1773.88 1625.91 1773.64 1625.17 1748.63 1551.78 1691.22 1540.13 1685.54 1538.97 1681.87 1533.43 1683.02 1527.75 1684.18 1522.07 1689.71 1518.39 1695.4 1519.55 1724.42 1525.44 1750.69 1544.7 1771.37 1575.23 1786.61 1597.75 1793.53 1618.46 1793.82 1619.33 1795.63 1624.83 1792.64 1630.77 1787.13 1632.58 1786.04 1632.94 1784.93 1633.11 1783.84 1633.11zM1220.41 1797.49C1217.03 1797.49 1213.72 1795.87 1211.69 1792.86 1208.46 1788.05 1209.73 1781.53 1214.53 1778.29 1217.87 1776.04 1297.22 1722.92 1379.43 1697.21 1414.07 1686.38 1485.12 1676.79 1590.61 1668.7 1668.78 1662.71 1737.86 1659.81 1738.55 1659.78 1744.34 1659.55 1749.23 1664.04 1749.47 1669.83 1749.71 1675.62 1745.21 1680.51 1739.42 1680.75 1736.68 1680.87 1465.14 1692.41 1385.7 1717.25 1306.38 1742.05 1227.06 1795.17 1226.26 1795.7 1224.47 1796.91 1222.43 1797.49 1220.41 1797.49z"></path><path fill="#474747" d="M1220.39 1739.13C1215.63 1739.13 1211.32 1735.87 1210.18 1731.04C1208.86 1725.39 1212.35 1719.74 1218 1718.42C1222.44 1717.37 1327.37 1692.87 1383.3 1696.76C1389.08 1697.17 1393.44 1702.18 1393.04 1707.96C1392.63 1713.75 1387.63 1718.11 1381.84 1717.7C1329.08 1714.03 1223.86 1738.6 1222.81 1738.85C1222 1739.04 1221.19 1739.13 1220.39 1739.13Z"></path><path fill="#DDD" d="M1697.98 1847.58C1697.98 1847.58 1559.3 2092.38 1591.47 1900.48L1697.98 1847.58Z"></path><path fill="#474747" d="M1598.24 1984.52C1595.85 1984.52 1593.72 1984.06 1591.75 1983.36C1575.11 1977.47 1572.03 1952.95 1581.12 1898.75C1581.68 1895.43 1583.79 1892.58 1586.8 1891.08L1693.31 1838.18C1697.44 1836.13 1702.43 1837.02 1705.6 1840.37C1708.77 1843.72 1709.38 1848.74 1707.11 1852.76C1706.92 1853.1 1687.49 1887.32 1665.08 1919.95C1628.78 1972.8 1610.26 1984.53 1598.24 1984.53L1598.24 1984.52ZM1600.97 1907.49C1594.67 1947.51 1597.73 1959.84 1599.15 1963.12C1603.06 1961.62 1617.33 1953.06 1650.46 1904.12C1657.8 1893.27 1664.74 1882.41 1670.64 1872.88L1600.97 1907.49Z"></path><path fill="#F7F7F7" d="M1161.85 2160.37C1161.85 2160.37 1088.25 2080.16 960.659 2086.25V2182.81L1161.85 2198.95V2160.37Z"></path><path fill="#474747" d="M1161.85 2209.44C1161.58 2209.44 1161.3 2209.43 1161.02 2209.41L959.82 2193.28C954.366 2192.84 950.162 2188.29 950.162 2182.81V2086.25C950.162 2080.64 954.562 2076.03 960.159 2075.76C1028.56 2072.51 1081.7 2093.6 1114.24 2111.88C1149.65 2131.76 1168.79 2152.41 1169.59 2153.28C1171.36 2155.21 1172.35 2157.75 1172.35 2160.37V2198.95C1172.35 2201.88 1171.13 2204.67 1168.97 2206.66C1167.03 2208.45 1164.48 2209.44 1161.85 2209.44ZM971.155 2173.13L1151.36 2187.57V2164.7C1145.14 2158.7 1128.63 2143.93 1103.23 2129.77C1074.82 2113.93 1029.41 2095.8 971.155 2096.44V2173.13Z"></path><path fill="#DDD" d="M1115.04 2160.37C1115.04 2160.37 1050.54 2115.85 974.032 2122.71Z"></path><path fill="#474747" d="M1115.03 2170.87C1112.98 2170.87 1110.9 2170.27 1109.08 2169.02 1108.21 2168.42 1046.46 2126.77 974.97 2133.16 969.196 2133.68 964.096 2129.42 963.578 2123.64 963.061 2117.87 967.322 2112.77 973.096 2112.25 1052.47 2105.14 1118.24 2149.83 1121.01 2151.73 1125.78 2155.03 1126.97 2161.56 1123.68 2166.34 1121.64 2169.29 1118.37 2170.87 1115.03 2170.87zM2122.73 1462.3V1462.44C2116.43 1482.03 2111.39 1494.77 2111.39 1494.77 2111.39 1494.77 2067.87 1592.17 1993.97 1537.03 1985.86 1531.01 1977.46 1523.18 1968.78 1513.24 1909.02 1477.27 1830.79 1514.08 1861.58 1436.55 1892.37 1358.87 1912.1 1398.34 1913.22 1373.57 1914.48 1348.8 1916.86 1338.02 1959.13 1282.18 1961.92 1278.4 1965.28 1274.9 1968.92 1271.82V1271.68C2019.3 1227.88 2139.52 1241.73 2146.94 1310.59 2152.26 1359.29 2135.04 1423.95 2122.73 1462.3L2122.73 1462.3z"></path><path fill="#474747" d="M2038.21 1564.45C2021.58 1564.45 2004.65 1558.1 1987.7 1545.44C1979.18 1539.13 1970.54 1531.05 1962.01 1521.43C1942.2 1509.97 1919.93 1506.89 1900.23 1504.17C1877.37 1501.01 1857.62 1498.29 1848.51 1482.66C1841.8 1471.15 1842.85 1455.26 1851.82 1432.67C1871.59 1382.81 1888.44 1375.79 1902.71 1373.56C1902.72 1373.41 1902.73 1373.26 1902.74 1373.09C1904.21 1344.19 1909.11 1330.87 1950.72 1275.89C1952.98 1272.84 1955.56 1269.92 1958.43 1267.16V1266.9L1962.03 1263.76C1978.37 1249.56 2002.13 1240.09 2028.93 1237.1C2054.59 1234.23 2080.83 1237.41 2102.82 1246.04C2134.95 1258.64 2154.33 1281.17 2157.37 1309.47C2160.3 1336.27 2158.46 1384.79 2133.22 1463.93V1464.08L2132.72 1465.65C2126.39 1485.34 2121.36 1498.09 2121.15 1498.63L2120.97 1499.05C2120.02 1501.17 2097.21 1551.27 2054.85 1562.3C2049.34 1563.74 2043.79 1564.45 2038.21 1564.45L2038.21 1564.45ZM1979.42 1276.68V1276.69L1975.7 1279.84C1972.54 1282.51 1969.8 1285.4 1967.56 1288.43L1967.49 1288.52C1925.22 1344.37 1924.77 1353.08 1923.7 1374.1C1923 1389.67 1914.55 1393.02 1906.38 1394.23C1900.16 1395.16 1888.59 1396.88 1871.34 1440.42C1863.58 1459.95 1864.51 1468.42 1866.65 1472.09C1870.61 1478.89 1886.39 1481.07 1903.1 1483.38C1924.16 1486.29 1950.36 1489.9 1974.2 1504.25L1975.61 1505.1L1976.69 1506.34C1984.6 1515.4 1992.52 1522.89 2000.22 1528.6C2017.5 1541.5 2034.07 1546 2049.49 1542.01C2080.96 1533.86 2100.28 1493.76 2101.73 1490.66C2102.43 1488.85 2106.83 1477.46 2112.23 1460.79V1460.65L2112.74 1459.09C2123.84 1424.5 2141.71 1359.36 2136.51 1311.73C2135.25 1300.05 2128.21 1278.55 2095.16 1265.58C2076.28 1258.18 2053.6 1255.47 2031.27 1257.96C2010.64 1260.27 1992.44 1266.87 1979.42 1276.69V1276.68Z"></path><path fill="#474747" d="M2079.06 1639.9C2022.66 1719.53 1971.86 1617.78 1955.21 1577.76L1970.46 1550.75L1993.97 1537.03C2067.87 1592.17 2111.39 1494.77 2111.39 1494.77C2111.39 1494.77 2116.43 1482.03 2122.73 1462.44C2123.99 1466.36 2146.38 1545.01 2079.06 1639.9Z"></path><path fill="#474747" d="M2035.65 1680.02C2033.97 1680.02 2032.28 1679.93 2030.58 1679.74 1990.15 1675.23 1959.93 1616.44 1945.52 1581.79L1943.55 1577.06 1962.72 1543.11 1994.68 1524.47 2000.25 1528.62C2017.5 1541.5 2034.07 1546 2049.49 1542.01 2080.96 1533.86 2100.28 1493.75 2101.73 1490.66 2102.45 1488.8 2107.11 1476.74 2112.73 1459.23L2122.72 1428.15 2132.72 1459.22C2133.02 1460.16 2140.02 1482.43 2137.07 1517.92 2133.48 1561.15 2116.38 1605.43 2087.63 1645.96 2071.61 1668.59 2054.14 1680.02 2035.65 1680.02L2035.65 1680.02zM1966.89 1578.42C1987.67 1626.61 2012.18 1656.56 2032.9 1658.87 2045.13 1660.24 2057.76 1651.81 2070.5 1633.83L2070.5 1633.82C2106.19 1583.51 2115.58 1538.25 2116.7 1507.39 2108.2 1522.6 2087.24 1553.87 2054.85 1562.3 2034.79 1567.53 2014.16 1563.22 1993.44 1549.49L1978.2 1558.38 1966.89 1578.42 1966.89 1578.42zM1431.1 2007.59C1389.83 2007.59 1346.83 2003.78 1303.08 1996.23 1222.04 1982.24 1167.22 1960.55 1164.93 1959.64 1159.54 1957.49 1156.92 1951.38 1159.07 1945.99 1161.22 1940.61 1167.33 1937.99 1172.72 1940.14 1173.43 1940.42 1228.28 1962.06 1307.16 1975.63 1353.42 1983.58 1398.78 1987.24 1441.97 1986.51 1495.74 1985.59 1546.28 1977.83 1592.2 1963.43 1597.73 1961.7 1603.62 1964.78 1605.36 1970.31 1607.09 1975.84 1604.01 1981.73 1598.48 1983.46 1550.55 1998.49 1497.91 2006.58 1442 2007.5 1438.38 2007.56 1434.75 2007.59 1431.1 2007.59zM1925.3 1895.17C1918.47 1895.17 1872.25 1893.65 1852.2 1853.44 1849.61 1848.25 1851.72 1841.95 1856.91 1839.36 1862.1 1836.78 1868.4 1838.89 1870.99 1844.07 1886.31 1874.8 1925.17 1874.2 1925.55 1874.18 1931.39 1874.04 1936.16 1878.61 1936.31 1884.41 1936.46 1890.2 1931.88 1895.02 1926.08 1895.16 1925.96 1895.17 1925.7 1895.17 1925.3 1895.17z"></path><path fill="#DDD" d="M2006.99 2656.5C1447.46 2923.53 1140.97 2628.93 1140.97 2628.93C1140.97 2628.93 1163.5 2264.5 1112.7 2129.86C1119 2137.42 1136.77 2144.56 1163.78 2151C1241.74 2169.61 1397.22 2182.35 1576.22 2182.35C1738 2182.35 1880.61 2171.99 1964.02 2156.18C2008.81 2147.78 2036.52 2137.84 2041.28 2127.07C1993.69 2324.12 2006.99 2656.5 2006.99 2656.5Z"></path><path fill="#474747" d="M1558.97 2778.92C1490.44 2778.92 1424.25 2770.25 1361.38 2752.97 1318.91 2741.3 1255.06 2719.12 1192.04 2679.69 1154.07 2655.94 1134.51 2637.28 1133.7 2636.5 1131.48 2634.36 1130.3 2631.36 1130.49 2628.28 1130.72 2624.66 1152.31 2264.56 1102.88 2133.57 1101.07 2128.78 1102.99 2123.38 1107.41 2120.8 1111.84 2118.22 1117.48 2119.21 1120.76 2123.15 1122.43 2125.14 1130.61 2132.3 1166.22 2140.79 1246.46 2159.95 1403.56 2171.85 1576.22 2171.85 1732 2171.85 1876.24 2162.14 1962.07 2145.86 2025.34 2134 2031.46 2123.26 2031.68 2122.81 2033.88 2117.84 2039.5 2115.38 2044.65 2117.12 2049.79 2118.86 2052.76 2124.25 2051.48 2129.53 2027.13 2230.39 2019.17 2368.06 2016.79 2465.79 2014.2 2571.98 2017.44 2655.25 2017.48 2656.08 2017.64 2660.28 2015.3 2664.17 2011.51 2665.98 1882.76 2727.42 1756.62 2764.2 1636.59 2775.3 1610.43 2777.72 1584.54 2778.93 1558.97 2778.93V2778.92zM1151.74 2624.51C1158.8 2630.68 1176.48 2645.27 1204.11 2662.48 1237.8 2683.45 1293.61 2712.73 1368.17 2733.07 1451.96 2755.92 1541.93 2763.07 1635.56 2754.31 1750.92 2743.52 1872.24 2708.42 1996.26 2649.97 1995.55 2627.74 1993.62 2554.59 1995.8 2465.42 1998 2374.81 2004.98 2250.09 2025.25 2150.82 2012.69 2155.93 1994 2161.23 1965.96 2166.49 1878.94 2182.99 1733.24 2192.84 1576.22 2192.84 1402.04 2192.84 1243.07 2180.72 1161.35 2161.21 1148.46 2158.14 1138.53 2155.13 1130.83 2152.26 1146.97 2212.09 1155.56 2305.22 1156.38 2429.82 1157 2522.54 1152.89 2603.82 1151.74 2624.51zM1717.43 1646.81C1700.61 1646.81 1686.92 1633.12 1686.92 1616.29 1686.92 1599.46 1700.61 1585.77 1717.43 1585.77 1734.26 1585.77 1747.95 1599.46 1747.95 1616.29 1747.95 1633.12 1734.26 1646.81 1717.43 1646.81zM1717.43 1606.77C1712.18 1606.77 1707.91 1611.04 1707.91 1616.29 1707.91 1621.54 1712.18 1625.81 1717.43 1625.81 1722.68 1625.81 1726.96 1621.54 1726.96 1616.29 1726.96 1611.04 1722.68 1606.77 1717.43 1606.77zM1402.82 1940.85C1401.75 1940.85 1400.67 1940.8 1399.58 1940.68 1382.84 1938.91 1370.67 1923.85 1372.45 1907.12 1374.22 1890.38 1389.28 1878.21 1406.01 1879.99 1414.12 1880.85 1421.41 1884.81 1426.53 1891.15 1431.65 1897.49 1434 1905.45 1433.14 1913.55 1431.48 1929.2 1418.21 1940.85 1402.82 1940.85zM1401.79 1919.8C1407.01 1920.35 1411.71 1916.56 1412.27 1911.34 1412.53 1908.81 1411.8 1906.33 1410.2 1904.35 1408.6 1902.37 1406.33 1901.13 1403.8 1900.86 1398.58 1900.3 1393.88 1904.11 1393.33 1909.33 1392.77 1914.55 1396.57 1919.25 1401.79 1919.81L1401.79 1919.8zM1858.79 2014.78C1857.7 2014.78 1856.61 2014.72 1855.51 2014.6 1838.78 2012.83 1826.61 1997.77 1828.39 1981.04 1830.16 1964.31 1845.22 1952.13 1861.95 1953.91 1870.06 1954.77 1877.34 1958.74 1882.47 1965.08 1887.59 1971.42 1889.94 1979.37 1889.08 1987.48 1888.22 1995.58 1884.25 2002.87 1877.92 2007.99 1872.43 2012.42 1865.74 2014.78 1858.79 2014.78H1858.79zM1857.73 1993.73C1860.26 1994 1862.74 1993.26 1864.72 1991.67 1866.7 1990.07 1867.93 1987.79 1868.2 1985.26 1868.47 1982.73 1867.74 1980.25 1866.14 1978.27 1864.54 1976.29 1862.27 1975.06 1859.74 1974.79 1854.51 1974.24 1849.82 1978.03 1849.26 1983.26 1848.71 1988.48 1852.51 1993.18 1857.73 1993.73L1857.73 1993.73z"></path><path fill="#F7F7F7" d="M2015.98 2171.28C2015.98 2171.28 2089.59 2091.07 2217.18 2097.15V2193.72L2015.98 2209.85V2171.28Z"></path><path fill="#474747" d="M2015.98 2220.34C2013.35 2220.34 2010.81 2219.36 2008.86 2217.56C2006.71 2215.57 2005.49 2212.78 2005.49 2209.85V2171.28C2005.49 2168.65 2006.47 2166.12 2008.25 2164.18C2009.05 2163.31 2028.19 2142.66 2063.6 2122.78C2096.14 2104.5 2149.27 2083.39 2217.68 2086.66C2223.27 2086.93 2227.67 2091.55 2227.67 2097.15V2193.72C2227.67 2199.19 2223.47 2203.74 2218.02 2204.18L2016.82 2220.31C2016.54 2220.33 2016.26 2220.34 2015.98 2220.34ZM2026.48 2175.6V2198.48L2206.68 2184.03V2107.34C2148.44 2106.7 2103.02 2124.84 2074.61 2140.68C2049.21 2154.83 2032.7 2169.6 2026.48 2175.6Z"></path><path fill="#474747" d="M2062.81 2181.77C2059.47 2181.77 2056.19 2180.18 2054.16 2177.23C2050.87 2172.46 2052.07 2165.93 2056.83 2162.64C2059.59 2160.73 2125.36 2116.03 2204.74 2123.16C2210.52 2123.67 2214.78 2128.77 2214.26 2134.55C2213.74 2140.32 2208.64 2144.6 2202.87 2144.07C2131.23 2137.64 2069.37 2179.5 2068.75 2179.92C2066.93 2181.17 2064.86 2181.77 2062.81 2181.77L2062.81 2181.77Z"></path><path fill="#FFD876" d="M2006.99 2656.5C2006.99 2656.5 1971.18 2596.72 2032.25 2572.39C2093.32 2548.07 2111.39 2508.26 2111.39 2508.26C2111.39 2508.26 2158.22 2621.18 2111.39 2656.5C2064.56 2691.82 2031.54 2669.62 2015.98 2717.21C2000.43 2764.8 1935.57 2732.44 1935.57 2732.44C1935.57 2732.44 1936.14 2689.74 2006.99 2656.5L2006.99 2656.5Z"></path><path fill="#474747" d="M1978.33 2753.7C1970.85 2753.7 1962.69 2752.55 1953.91 2750.24C1940.96 2746.83 1931.29 2742.04 1930.89 2741.84C1927.28 2740.04 1925.02 2736.33 1925.08 2732.3C1925.1 2730.38 1926.47 2686.69 1993.03 2651.72C1988.18 2639.99 1982.44 2619.83 1989.07 2600.22C1994.76 2583.41 2007.97 2570.77 2028.36 2562.64C2084.25 2540.38 2101.69 2504.23 2101.86 2503.87C2103.59 2500.06 2107.35 2497.69 2111.58 2497.74C2115.76 2497.81 2119.49 2500.38 2121.09 2504.24C2121.58 2505.43 2133.3 2533.9 2139.28 2567.28C2147.81 2614.82 2140.55 2647.66 2117.71 2664.88C2096.49 2680.89 2077.84 2685.99 2062.85 2690.09C2043.14 2695.48 2033.25 2698.19 2025.96 2720.47C2021.4 2734.42 2012.51 2744.51 2000.24 2749.64C1993.76 2752.35 1986.44 2753.7 1978.33 2753.7V2753.7ZM1947.43 2726.14C1959.26 2730.66 1978.89 2735.83 1992.17 2730.26C1998.81 2727.47 2003.33 2722.14 2006.01 2713.95C2016.8 2680.92 2036.48 2675.54 2057.32 2669.84C2071.26 2666.03 2087.07 2661.7 2105.07 2648.12C2125.01 2633.09 2123.44 2597.88 2118.62 2570.99C2115.94 2556.03 2111.96 2541.97 2108.53 2531.36C2096.33 2546.29 2073.94 2567.09 2036.13 2582.15C2021.72 2587.89 2012.58 2596.23 2008.96 2606.94C2002.14 2627.1 2015.85 2650.87 2015.99 2651.11C2017.52 2653.65 2017.89 2656.72 2017.03 2659.56C2016.16 2662.4 2014.13 2664.74 2011.45 2666C1993.09 2674.61 1968.32 2689.41 1954.57 2710.97C1950.7 2717.04 1948.58 2722.3 1947.43 2726.14Z"></path><path fill="#FFD876" d="M1240.94 2754.2C1240.94 2754.2 1111.65 2768.75 1111.51 2717.02C1062.9 2703.3 1058.84 2673.32 1050.73 2598.7C1042.62 2524.09 998.891 2508.26 998.891 2508.26C998.891 2508.26 1089.12 2511.44 1115.04 2570.18C1140.97 2628.93 1164.16 2632.24 1188.63 2632.17C1213.11 2632.11 1302.94 2648.24 1303.36 2677.77C1303.36 2677.77 1336.96 2618.84 1275.03 2601.15C1275.03 2601.15 1358.18 2571.33 1406.27 2627.36C1454.37 2683.39 1644.9 2599.67 1619.2 2707.67C1593.5 2815.67 1605.86 2723.2 1666.84 2732.44C1727.82 2741.69 1710.64 2686.07 1783.85 2668C1857.05 2649.93 1935.92 2613.87 1936.11 2561.07C1936.11 2561.07 2001.2 2651.43 1935.57 2732.44C1869.95 2813.46 1752.39 2798.29 1726.02 2787.08C1699.66 2775.86 1659 2776.27 1633.99 2801.5C1608.98 2826.73 1547.78 2771.86 1523.09 2780.49C1498.4 2789.13 1406.64 2807.42 1341.94 2761.78C1277.25 2716.15 1240.94 2754.2 1240.94 2754.2Z"></path><path fill="#474747" d="M1616.61 2818.75C1600.25 2818.75 1581.56 2810.23 1564.32 2802.38C1551.13 2796.37 1533.05 2788.13 1526.55 2790.4C1514.22 2794.72 1483.83 2801.99 1447.91 2801.99C1447.77 2801.99 1447.64 2801.99 1447.5 2801.99C1403.72 2801.92 1365.13 2790.99 1335.89 2770.36C1280.49 2731.29 1250.29 2759.7 1248.5 2761.47C1246.79 2763.32 1244.62 2764.34 1242.11 2764.63C1241.16 2764.73 1218.57 2767.23 1191.9 2766.42C1154.55 2765.28 1128.37 2758.24 1114.07 2745.49C1107.67 2739.78 1103.53 2732.8 1101.85 2725C1079.14 2717.22 1064.95 2704.65 1056.31 2684.9C1047.73 2665.28 1044.64 2639.79 1040.29 2599.84C1033.15 2534.11 997.481 2518.99 995.271 2518.11C990.365 2516.43 987.526 2511.44 988.459 2506.34C989.396 2501.21 994.056 2497.62 999.258 2497.77C1003.21 2497.91 1096.38 2501.92 1124.64 2565.95C1149.29 2621.78 1169.27 2621.69 1188.6 2621.68H1188.78C1203.07 2621.68 1232.79 2626.2 1258.05 2633.82C1277.27 2639.62 1291.57 2646.42 1300.89 2654.15C1302.35 2647.05 1302.7 2638.9 1299.7 2631.6C1295.84 2622.21 1286.57 2615.36 1272.15 2611.24C1267.77 2609.99 1264.69 2606.05 1264.54 2601.49C1264.39 2596.94 1267.2 2592.81 1271.49 2591.27C1272.41 2590.94 1294.23 2583.22 1322.44 2582.75C1360.74 2582.09 1392.47 2595.17 1414.23 2620.52C1431.29 2640.39 1474.42 2639.21 1516.13 2638.05C1560.78 2636.81 1602.96 2635.65 1622.32 2659.47C1632.14 2671.55 1634.53 2688.59 1629.41 2710.1C1627.5 2718.12 1625.79 2725.1 1624.29 2731.07C1635.29 2724.28 1649.95 2719.27 1668.41 2722.06C1694.28 2725.99 1701.36 2717.43 1714.22 2701.91C1726.98 2686.49 1742.87 2667.3 1781.33 2657.81C1809.55 2650.84 1849.9 2638.39 1881.84 2618.63C1910.81 2600.71 1925.54 2581.33 1925.61 2561.03C1925.63 2556.48 1928.57 2552.46 1932.9 2551.07C1937.23 2549.68 1941.97 2551.24 1944.63 2554.93C1945.34 2555.92 1962.18 2579.56 1970.64 2613.86C1982.02 2659.98 1972.71 2703.27 1943.73 2739.05C1900.41 2792.53 1836.29 2806.53 1787.09 2806.53C1757.17 2806.53 1732.77 2801.35 1721.91 2796.73C1690.32 2783.29 1657.51 2792.67 1641.44 2808.89C1634.38 2816.01 1625.87 2818.75 1616.61 2818.75V2818.75ZM1529.21 2769.05C1541.8 2769.05 1556.52 2775.76 1573.03 2783.28C1593.77 2792.73 1617.28 2803.44 1626.53 2794.11C1654.35 2766.05 1699.7 2764.47 1730.13 2777.42C1754.62 2787.83 1866.19 2801.42 1927.41 2725.84C1952.45 2694.93 1960.14 2658.95 1950.26 2618.89C1947.48 2607.6 1943.65 2597.6 1939.94 2589.47C1931.74 2606.44 1916.01 2622.18 1892.88 2636.49C1858.62 2657.68 1816.05 2670.86 1786.36 2678.19C1754.62 2686.02 1742.3 2700.9 1730.39 2715.29C1716.86 2731.63 1702.88 2748.52 1665.27 2742.82C1640.52 2739.06 1625.6 2755.89 1618.44 2763.97C1617.25 2765.31 1616.32 2766.37 1615.4 2767.25C1609.41 2773.08 1603.52 2770.65 1601.86 2769.77C1594.33 2765.77 1596.13 2757.41 1596.81 2754.26C1597.42 2751.46 1598.43 2747.52 1599.97 2741.54C1602.13 2733.13 1605.09 2721.61 1608.99 2705.24C1612.56 2690.2 1611.6 2679.56 1606.03 2672.71C1593.2 2656.92 1554.31 2657.99 1516.7 2659.03C1470.08 2660.32 1421.87 2661.66 1398.3 2634.2C1380.6 2613.58 1355.39 2603.32 1323.38 2603.73C1317.03 2603.81 1311.01 2604.32 1305.56 2605.04C1311.66 2610.25 1316.21 2616.5 1319.16 2623.75C1330.33 2651.12 1313.21 2681.68 1312.48 2682.97C1310.13 2687.08 1305.33 2689.12 1300.74 2687.94C1296.16 2686.76 1292.93 2682.65 1292.86 2677.92C1292.8 2673.57 1284.12 2663.62 1251.98 2653.92C1226.49 2646.23 1199.27 2642.67 1188.78 2642.67C1188.54 2642.67 1188.32 2642.67 1188.09 2642.67C1160.34 2642.67 1133.13 2637.15 1105.44 2574.42C1092.49 2545.07 1060.31 2531.13 1034.62 2524.54C1046.22 2539.64 1057.38 2562.77 1061.16 2597.56C1065.29 2635.54 1068.19 2659.67 1075.55 2676.49C1082.54 2692.47 1093.42 2701.01 1114.36 2706.91C1118.87 2708.19 1121.99 2712.3 1122.01 2716.99C1122.02 2722.08 1123.94 2726.16 1128.04 2729.82C1148.78 2748.3 1210.4 2746.63 1236.46 2744.11C1241.08 2740.3 1250.63 2733.79 1264.9 2730.63C1297.02 2723.51 1327.81 2738.97 1347.99 2753.21C1407.88 2795.45 1494.13 2779.5 1519.62 2770.58C1522.66 2769.52 1525.86 2769.05 1529.21 2769.05L1529.21 2769.05Z"></path><path fill="#FFD876" d="M1521.88 2811.46C1521.88 2811.46 1410.94 2832.74 1412.91 2767.84C1414.88 2702.95 1408.95 2680.25 1408.95 2680.25C1408.95 2680.25 1489.55 2693.52 1502.82 2726.95C1516.1 2760.38 1498.92 2767.44 1521.88 2811.46Z"></path><path fill="#474747" d="M1484.06 2825.27C1461.98 2825.27 1435.75 2821.74 1419.17 2807.6 1407.54 2797.7 1401.91 2784.21 1402.42 2767.52 1404.29 2705.74 1398.83 2683.07 1398.78 2682.85 1397.88 2679.41 1398.79 2675.78 1401.18 2673.15 1403.57 2670.52 1407.14 2669.31 1410.65 2669.89 1419.5 2671.35 1497.55 2685.22 1512.58 2723.08 1519.03 2739.33 1519.1 2750.59 1519.16 2760.52 1519.24 2772.51 1519.31 2783.83 1531.19 2806.61 1532.72 2809.55 1532.78 2813.04 1531.33 2816.03 1529.89 2819.02 1527.12 2821.14 1523.86 2821.77 1522.42 2822.04 1505.14 2825.27 1484.05 2825.27H1484.06zM1421.58 2693.49C1423.09 2707.33 1424.52 2731.1 1423.4 2768.16 1423.09 2778.3 1426.16 2785.97 1432.77 2791.61 1449.24 2805.67 1484.22 2805.43 1506.34 2803.09 1498.31 2783.83 1498.24 2771.63 1498.17 2760.65 1498.11 2751.4 1498.07 2743.41 1493.07 2730.82 1486.24 2713.62 1450.06 2700.11 1421.58 2693.49L1421.58 2693.49zM1783.85 2152.54H1437.08C1431.29 2152.54 1426.59 2147.84 1426.59 2142.04 1426.59 2136.24 1431.29 2131.54 1437.08 2131.54H1783.85C1789.64 2131.54 1794.34 2136.24 1794.34 2142.04 1794.34 2147.84 1789.64 2152.54 1783.85 2152.54z"></path></svg>