<svg xmlns="http://www.w3.org/2000/svg" width="512" height="512" fill="none" viewBox="0 0 512 512" id="corn"><path fill="url(#paint0_linear)" fill-rule="evenodd" d="M209.27 61.8097C213.667 39.825 232.971 24 255.391 24C277.811 24 297.114 39.825 301.511 61.8097L307.041 89.4608C309.934 103.923 311.391 118.636 311.391 133.386V192.167C320.04 193.192 327.552 198.861 330.842 207.087L381.459 333.63C388.044 350.092 375.92 368 358.19 368C351.777 368 345.608 365.542 340.953 361.132L319.391 340.704V408C319.391 431.7 306.508 452.378 287.391 463.436V472C287.391 480.837 280.227 488 271.391 488H239.391C230.554 488 223.391 480.837 223.391 472V463.436C204.274 452.378 191.391 431.7 191.391 408V349.148L168.124 363.93C163.939 366.588 159.084 368 154.127 368C135.661 368 123.035 349.35 129.893 332.205L179.94 207.087C183.23 198.861 190.741 193.192 199.391 192.167V133.386C199.391 118.636 200.848 103.923 203.74 89.4608L209.27 61.8097ZM191.391 221.541L144.748 338.147C142.094 344.782 146.981 352 154.127 352C156.046 352 157.924 351.454 159.544 350.425L191.391 330.193V221.541ZM215.391 192V168H231.391V192H215.391ZM247.391 192H263.391V168H247.391V192ZM247.391 152H263.391V128H247.391V152ZM247.391 112H263.391V88H247.391V112ZM231.391 88V112H216.493C217.166 105.494 218.145 99.0199 219.429 92.5987L220.349 88H231.391ZM247.391 72H263.391V41.045C260.829 40.3621 258.146 40 255.391 40C252.636 40 249.953 40.3621 247.391 41.045V72ZM231.391 51.3562V72H223.549L224.96 64.9475C225.986 59.8138 228.245 55.1891 231.391 51.3562ZM279.391 51.3562V72H287.232L285.822 64.9475C284.795 59.8138 282.536 55.1891 279.391 51.3562ZM290.432 88H279.391V112H294.288C293.616 105.494 292.636 99.0199 291.352 92.5987L290.432 88ZM295.321 128H279.391V152H295.391V133.386C295.391 131.59 295.368 129.794 295.321 128ZM295.391 168H279.391V192H295.391V168ZM215.461 128H231.391V152H215.391V133.386C215.391 131.59 215.414 129.794 215.461 128ZM303.391 325.546L207.391 234.599V408C207.391 427.136 218.588 443.672 234.824 451.385C237.613 452.71 239.391 455.523 239.391 458.611V472H271.391V458.611C271.391 455.523 273.168 452.71 275.958 451.385C292.193 443.672 303.391 427.136 303.391 408V325.546ZM209.199 214.272L351.957 349.517C353.64 351.111 355.871 352 358.19 352C364.601 352 368.984 345.525 366.603 339.572L315.986 213.029C314.771 209.992 311.829 208 308.558 208H217.279C214.249 208 211.479 209.712 210.124 212.422L209.199 214.272Z" clip-rule="evenodd"></path><defs><linearGradient id="paint0_linear" x1="127.391" x2="447.391" y1="128" y2="448" gradientUnits="userSpaceOnUse"><stop stop-color="#FF003D"></stop><stop offset="1" stop-color="#3D00EB"></stop></linearGradient></defs></svg>